# xmcd CD database file
#
# Track frame offsets:
#	150
#	14714
#	26808
#	40815
#	55864
#	71711
#	85274
#	100916
#	114252
#	128696
#	145468
#	160503
#	176460
#	191957
#	207174
#	217478
#	232545
#	248838
#	264995
#	281521
#	296450
#
# Disc length: 4213 seconds
#
# Revision: 0
# Processed by: cddbd v1.5.2PL0 Copyright (c) Steve Scherf et al.
# Submitted via: CDex 1.70beta2
#
DISCID=33107315
DTITLE=Various Artist - NU COUNTRY TRAXX 174
DYEAR=2013
DGENRE=Country
TTITLE0=We Were Us - Keith Urban
TTITLE1=Everybody's Got Somebody But Me - Hunter Hayes ft. Jason Mraz
TTITLE2=Slow Me Down - Sara Evans
TTITLE3=Stay - Florida Georgia Line
TTITLE4=It Ain't The Whiskey - Gary Allan
TTITLE5=Beat Of The Music - Brett Eldredge 
TTITLE6=Goodnight Kiss - Randy Houser
TTITLE7=Let's Go There - Brothers Osborne
TTITLE8=She's Runnin' - The Lacs
TTITLE9=Doin' It Right - Rodney Atkins
TTITLE10=Take The Keys - Leah Turner
TTITLE11=Radio Up - Steve Holy
TTITLE12=Best Seat In The House - LoCash Cowboys
TTITLE13=Peace Sign - Jo Dee Messina
TTITLE14=I Think I'll Just Stay Here and Drink - Hank Williams Jr. ft. Merle Haggard
TTITLE15=Lies I Told Myself - Ty Herndon
TTITLE16=Get Some - Blackjack Billy
TTITLE17=Daughter of the Revolution - Erica Nicole
TTITLE18=Somewhere Between - Taylor Made
TTITLE19=The Young And The Reckless - Kinsey Sadler
TTITLE20=Tennessee - Freddy Asbury
EXTD=YEAR: 2013
EXTT0=
EXTT1=
EXTT2=
EXTT3=
EXTT4=
EXTT5=
EXTT6=
EXTT7=
EXTT8=
EXTT9=
EXTT10=
EXTT11=
EXTT12=
EXTT13=
EXTT14=
EXTT15=
EXTT16=
EXTT17=
EXTT18=
EXTT19=
EXTT20=
PLAYORDER=
